<svg width="64" height="64" viewBox="0 0 64 64" fill="none" xmlns="http://www.w3.org/2000/svg">
  <rect width="64" height="64" rx="16" fill="url(#bg)"/>
  <path d="M18 23.5C18 18.8066 21.8066 15 26.5 15H43V24H28.5C26.0147 24 24 26.0147 24 28.5C24 30.9853 26.0147 33 28.5 33H38C43.5228 33 48 37.4772 48 43C48 48.5228 43.5228 53 38 53H19V44H36C38.4853 44 40.5 41.9853 40.5 39.5C40.5 37.0147 38.4853 35 36 35H26.5C21.8066 35 18 31.1934 18 26.5V23.5Z" fill="white"/>
  <circle cx="47" cy="17" r="6" fill="#FBBF24"/>
  <path d="M43 17H51" stroke="#6D28D9" stroke-width="2.5" stroke-linecap="round"/>
  <path d="M47 13V21" stroke="#6D28D9" stroke-width="2.5" stroke-linecap="round"/>
  <defs>
    <linearGradient id="bg" x1="6" y1="6" x2="58" y2="58" gradientUnits="userSpaceOnUse">
      <stop stop-color="#9333EA"/>
      <stop offset="1" stop-color="#6D28D9"/>
    </linearGradient>
  </defs>
</svg>
