<svg width="255" height="28" viewBox="0 0 255 28" fill="none" xmlns="http://www.w3.org/2000/svg">
  <rect x="1" y="1" width="26" height="26" rx="8" fill="url(#g)" />
  <path d="M8.5 10.2C8.5 7.88 10.38 6 12.7 6H22.5V10.5H13.7C12.47 10.5 11.47 11.5 11.47 12.73C11.47 13.95 12.47 14.95 13.7 14.95H19.65C22.91 14.95 25.55 17.59 25.55 20.85C25.55 24.11 22.91 26.75 19.65 26.75H9V22.25H18.35C19.58 22.25 20.58 21.25 20.58 20.03C20.58 18.8 19.58 17.8 18.35 17.8H12.7C10.38 17.8 8.5 15.92 8.5 13.6V10.2Z" fill="white"/>
  <circle cx="22" cy="6" r="4.1" fill="#FBBF24"/>
  <text x="36" y="18.5" fill="#6D28D9" font-family="ui-sans-serif, system-ui, sans-serif" font-size="13.5" font-weight="700">Smithsons Logistics</text>
  <defs>
    <linearGradient id="g" x1="3" y1="3" x2="25" y2="25" gradientUnits="userSpaceOnUse">
      <stop stop-color="#9333EA"/>
      <stop offset="1" stop-color="#6D28D9"/>
    </linearGradient>
  </defs>
</svg>
